<?xml version="1.0" standalone="no"?>
<!DOCTYPE svg PUBLIC "-//W3C//DTD SVG 20010904//EN"
 "http://www.w3.org/TR/2001/REC-SVG-20010904/DTD/svg10.dtd">
<svg version="1.0" xmlns="http://www.w3.org/2000/svg"
 width="16.000000pt" height="16.000000pt" viewBox="0 0 16.000000 16.000000"
 preserveAspectRatio="xMidYMid meet">

<g transform="translate(0.000000,16.000000) scale(0.100000,-0.100000)"
fill="#000000" stroke="none">
<path d="M4 147 c-3 -8 -4 -43 -2 -78 l3 -64 75 0 75 0 0 75 0 75 -73 3 c-55
2 -74 -1 -78 -11z m141 -67 l0 -65 -65 0 -65 0 -3 54 c-5 80 -2 82 70 79 l63
-3 0 -65z"/>
<path d="M22 74 l1 -59 7 50 c8 55 12 51 12 -10 0 -26 1 -31 5 -15 2 14 9 30
15 35 6 7 8 5 6 -5 -2 -8 4 -15 12 -15 8 0 14 7 12 15 -2 10 0 12 6 5 6 -5 13
-21 15 -35 4 -16 5 -11 5 15 0 61 4 65 12 10 l7 -50 1 59 2 60 -30 -29 -30
-29 -30 29 -30 29 2 -60z"/>
</g>
</svg>
